PathFileType	4	(X/Y/Z)	C:\Users\Caesar\Desktop\±œ“µ…Ëº∆\Lee-Son's Toolbox\Example Data\Static.trc	Maker trajectories (.TRC) by Lee-Son ToolBox
DataRate	CameraRate	NumFrames	NumMarkers	Units	OrigDataRate	OrigDataStarFrame	OrigNumFrames
100	100	5	42	mm	100	1	264
Frame#	Time	CLAV			C7			RACR			LACR			RASH			RPSH			RUA3			RLEL			RMEL			RFAsuperior			RFAradius			RFAulna			LASH			LPSH			LUA1			LLEL			LMEL			LFAsuperior			LFAradius			LFAulna			LASI			RASI			LPSI			RPSI			RTH3			RLFC			RMFC			RTB3			RLMAL			RMMAL			RCAL			RMT5			RTOE			LTH1			LLFC			LMFC			LTB1			LLMAL			LMMAL			LCAL			LMT5			LTOE		
		X1	Y1	Z1	X2	Y2	Z2	X3	Y3	Z3	X4	Y4	Z4	X5	Y5	Z5	X6	Y6	Z6	X7	Y7	Z7	X8	Y8	Z8	X9	Y9	Z9	X10	Y10	Z10	X11	Y11	Z11	X12	Y12	Z12	X13	Y13	Z13	X14	Y14	Z14	X15	Y15	Z15	X16	Y16	Z16	X17	Y17	Z17	X18	Y18	Z18	X19	Y19	Z19	X20	Y20	Z20	X21	Y21	Z21	X22	Y22	Z22	X23	Y23	Z23	X24	Y24	Z24	X25	Y25	Z25	X26	Y26	Z26	X27	Y27	Z27	X28	Y28	Z28	X29	Y29	Z29	X30	Y30	Z30	X31	Y31	Z31	X32	Y32	Z32	X33	Y33	Z33	X34	Y34	Z34	X35	Y35	Z35	X36	Y36	Z36	X37	Y37	Z37	X38	Y38	Z38	X39	Y39	Z39	X40	Y40	Z40	X41	Y41	Z41	X42	Y42	Z42

232	2.31	588.906	1418.42	185.426	570.568	1468.11	326.325	735.006	1421.66	267.916	413.93	1450.44	277.053	735.333	1378.66	209.48	719.4	1365.75	346.876	818.1	1279.26	303.22	876.791	1134	312.345	827.394	1107.21	266.318	906.014	1078.87	321.832	1066.17	971.796	272.913	1011.33	927.862	307.399	415.237	1412.38	216.199	403.473	1390.08	347.042	331.104	1380.02	304.466	240.296	1158.08	327.487	299.449	1144.13	278.025	205.108	1109.66	335.963	80.4143	987.258	283.887	132.27	946.784	322.709	422.342	964.409	183.455	695.778	960.392	188.47	519.995	992.021	354.595	612.605	986.013	358.549	761.947	769.231	233.947	763.436	506.418	276.698	662.316	490.53	287.975	806.86	394.642	331.973	783.63	93.5481	349.662	696.489	102.802	310.763	734.132	44.8025	411.33	825.051	27.2574	236.42	757.685	38.1859	154.752	357.808	678.454	256.67	371.679	515.316	272.828	472.066	491.963	271.75	342.166	232.322	348.331	352.92	103.888	348.524	437.025	113.892	311.627	407.577	41.4932	408.777	306.276	30.221	241.372	365.191	39.626	154.603
233	2.32	588.897	1418.41	185.33	570.582	1468.1	326.233	734.997	1421.63	267.823	413.93	1450.44	276.971	735.32	1378.64	209.387	719.386	1365.73	346.785	818.082	1279.23	303.135	876.767	1133.97	312.261	827.374	1107.19	266.232	905.989	1078.84	321.752	1066.15	971.76	272.847	1011.31	927.831	307.33	415.229	1412.38	216.117	403.472	1390.09	346.963	331.099	1380.02	304.39	240.279	1158.09	327.42	299.429	1144.13	277.956	205.091	1109.67	335.9	80.3898	987.272	283.836	132.248	946.796	322.653	422.314	964.407	183.381	695.749	960.379	188.404	519.963	992.024	354.522	612.571	986.016	358.477	761.919	769.223	233.895	763.414	506.414	276.67	662.296	490.515	287.948	806.84	394.647	331.95	783.622	93.5528	349.657	696.482	102.8	310.758	734.127	44.8041	411.328	825.048	27.2578	236.419	757.683	38.1832	154.751	357.786	678.449	256.609	371.657	515.306	272.782	472.048	491.954	271.71	342.158	232.325	348.313	352.92	103.891	348.52	437.025	113.894	311.624	407.576	41.4953	408.775	306.282	30.2214	241.376	365.198	39.6248	154.605
234	2.33	588.887	1418.39	185.234	570.595	1468.09	326.142	734.989	1421.61	267.731	413.93	1450.44	276.889	735.307	1378.61	209.295	719.371	1365.71	346.695	818.064	1279.2	303.05	876.742	1133.94	312.177	827.353	1107.16	266.147	905.964	1078.82	321.672	1066.12	971.725	272.781	1011.28	927.801	307.261	415.221	1412.38	216.035	403.471	1390.09	346.884	331.094	1380.03	304.315	240.262	1158.09	327.353	299.409	1144.13	277.886	205.074	1109.68	335.836	80.3647	987.286	283.785	132.225	946.809	322.597	422.286	964.406	183.308	695.72	960.366	188.338	519.93	992.027	354.45	612.538	986.018	358.406	761.891	769.214	233.843	763.393	506.409	276.641	662.274	490.5	287.92	806.821	394.651	331.928	783.613	93.5575	349.652	696.474	102.798	310.754	734.123	44.8056	411.325	825.045	27.2582	236.418	757.68	38.1804	154.75	357.764	678.443	256.549	371.635	515.296	272.735	472.03	491.945	271.669	342.151	232.328	348.295	352.92	103.894	348.515	437.025	113.896	311.62	407.575	41.4975	408.773	306.288	30.2217	241.381	365.205	39.6236	154.607
235	2.34	588.878	1418.38	185.138	570.609	1468.08	326.05	734.98	1421.58	267.639	413.929	1450.44	276.808	735.293	1378.58	209.203	719.356	1365.68	346.605	818.045	1279.18	302.966	876.716	1133.91	312.094	827.332	1107.13	266.063	905.938	1078.79	321.593	1066.1	971.689	272.717	1011.25	927.769	307.193	415.212	1412.38	215.954	403.469	1390.1	346.805	331.089	1380.04	304.24	240.245	1158.1	327.286	299.388	1144.13	277.817	205.057	1109.69	335.773	80.3392	987.3	283.734	132.202	946.821	322.541	422.257	964.405	183.234	695.691	960.354	188.272	519.897	992.03	354.377	612.504	986.02	358.334	761.862	769.206	233.791	763.37	506.405	276.613	662.253	490.485	287.892	806.801	394.656	331.905	783.605	93.5623	349.647	696.466	102.795	310.749	734.118	44.8072	411.323	825.042	27.2586	236.417	757.678	38.1776	154.749	357.742	678.437	256.488	371.612	515.286	272.688	472.011	491.936	271.629	342.143	232.331	348.276	352.92	103.897	348.511	437.024	113.898	311.617	407.574	41.4997	408.771	306.294	30.2221	241.385	365.212	39.6225	154.609
236	2.35	588.867	1418.36	185.043	570.622	1468.07	325.959	734.971	1421.55	267.547	413.928	1450.45	276.727	735.28	1378.55	209.111	719.341	1365.66	346.515	818.026	1279.15	302.882	876.69	1133.88	312.012	827.31	1107.1	265.978	905.911	1078.76	321.515	1066.07	971.653	272.652	1011.23	927.738	307.125	415.203	1412.38	215.873	403.467	1390.1	346.727	331.084	1380.04	304.165	240.227	1158.11	327.219	299.367	1144.13	277.748	205.039	1109.7	335.71	80.3132	987.314	283.683	132.179	946.834	322.484	422.228	964.405	183.161	695.661	960.341	188.206	519.864	992.033	354.305	612.469	986.022	358.262	761.833	769.197	233.739	763.348	506.401	276.584	662.231	490.469	287.864	806.78	394.66	331.882	783.596	93.5671	349.643	696.459	102.793	310.744	734.114	44.8088	411.32	825.039	27.259	236.416	757.675	38.1748	154.748	357.72	678.432	256.427	371.589	515.276	272.641	471.992	491.927	271.588	342.135	232.334	348.257	352.92	103.9	348.507	437.024	113.9	311.614	407.573	41.5018	408.768	306.3	30.2225	241.39	365.219	39.6214	154.612
